<svg version="1.1" xmlns="http://www.w3.org/2000/svg" xmlns:xlink="http://www.w3.org/1999/xlink" viewBox="0 0 172 172"><g fill="none" fill-rule="nonzero" stroke="none" stroke-width="1" stroke-linecap="butt" stroke-linejoin="miter" stroke-miterlimit="10" stroke-dasharray="" stroke-dashoffset="0" font-family="none" font-weight="none" font-size="none" text-anchor="none" style="mix-blend-mode: normal"><path d="M0,172v-172h172v172z" fill="none"></path><g fill="#ffffff"><path d="M32.47396,0.67188c-11.67383,2.74349 -45.6875,49.49479 28.21875,49.49479h10.75c0,0 -60.27278,-6.32682 -40.3125,-33.14583c11.08594,15.28516 28.33073,21.61198 40.53646,24.1875v8.95833h28.66667v-8.95833c12.20573,-2.57552 29.45052,-8.90234 40.53646,-24.1875c19.96028,26.81901 -40.3125,33.14583 -40.3125,33.14583h10.75c73.90625,0 39.89258,-46.7513 28.21875,-49.49479c-14.13737,19.31641 -28.72265,29.92643 -39.19271,35.83333v-7.83854h-28.66667v7.83854c-10.47005,-5.9069 -25.05534,-16.51692 -39.19271,-35.83333zM0,57.33333v28.66667h71.66667v-14.33333h28.66667v14.33333h71.66667v-28.66667zM14.33333,93.16667v78.83333h57.33333v-64.5h28.66667v64.5h57.33333v-78.83333z"></path></g></g></svg>