<svg version="1.1" xmlns="http://www.w3.org/2000/svg" xmlns:xlink="http://www.w3.org/1999/xlink" viewBox="0 0 172 172"><g fill="none" fill-rule="nonzero" stroke="none" stroke-width="1" stroke-linecap="butt" stroke-linejoin="miter" stroke-miterlimit="10" stroke-dasharray="" stroke-dashoffset="0" font-family="none" font-weight="none" font-size="none" text-anchor="none" style="mix-blend-mode: normal"><path d="M0,172v-172h172v172z" fill="none"></path><g fill="#ffffff"><path d="M107.45801,23.59961c-3.81482,-0.02636 -7.12468,3.16106 -7.12468,7.18066c0,3.16767 2.08371,6.02157 5.15104,6.80273c20.43844,5.20703 35.82348,22.73457 37.66699,44.09179c0.1229,1.42382 0.18197,2.86992 0.18197,4.3252c0,23.2845 -16.04796,42.86282 -37.84896,48.41699c-3.06733,0.78117 -5.15104,3.63507 -5.15104,6.80274c0,4.59383 4.3327,8.10303 8.79036,6.9707c27.90701,-7.08783 48.54297,-32.28393 48.54297,-62.19043c0,-29.9065 -20.63597,-55.1026 -48.54297,-62.19043c-0.5572,-0.14154 -1.12071,-0.2062 -1.66568,-0.20996zM79.61719,31.66211c-2.01815,-0.23721 -4.15778,0.37849 -5.85091,2.07161l-30.76628,30.76628h-14.33333c-7.91917,0 -14.33333,6.41417 -14.33333,14.33333v14.33333c0,7.91917 6.41417,14.33333 14.33333,14.33333h14.33333l30.76628,30.76628c4.515,4.515 12.23372,1.31844 12.23372,-5.06706v-94.39844c0,-3.99094 -3.01924,-6.74332 -6.38281,-7.13867zM107.22006,54.01595c-3.61201,0.13706 -6.88672,3.16341 -6.88672,7.19466v0.16797c0,2.52267 1.32684,4.87053 3.54134,6.08887c6.59333,3.6335 10.79199,10.56322 10.79199,18.53255c0,7.96933 -4.19866,14.89222 -10.79199,18.51855c-2.2145,1.21833 -3.54134,3.5802 -3.54134,6.10287v0.15397c0,5.38217 5.83938,8.986 10.51205,6.31283c10.89333,-6.22783 18.15462,-17.80839 18.15462,-31.08822c0,-13.27983 -7.26129,-24.85322 -18.15462,-31.08822c-1.16817,-0.6665 -2.42133,-0.94152 -3.62532,-0.89583z"></path></g></g></svg>